<?xml version="1.0" standalone="no"?>
<!DOCTYPE svg PUBLIC "-//W3C//DTD SVG 20010904//EN"
 "http://www.w3.org/TR/2001/REC-SVG-20010904/DTD/svg10.dtd">
<svg version="1.0" xmlns="http://www.w3.org/2000/svg"
 width="852.000000pt" height="852.000000pt" viewBox="0 0 852.000000 852.000000"
 preserveAspectRatio="xMidYMid meet">
<metadata>
Created by potrace 1.14, written by Peter Selinger 2001-2017
</metadata>
<g transform="translate(0.000000,852.000000) scale(0.100000,-0.100000)"
fill="#000000" stroke="none">
<path d="M4055 6929 c-22 -4 -56 -10 -75 -14 -48 -8 -263 -66 -275 -73 -5 -4
-16 -7 -24 -8 -23 -4 -125 -47 -136 -57 -7 -7 -3 -7 10 -3 11 5 25 9 30 10 6
2 17 6 25 9 57 21 139 49 160 53 14 3 59 14 100 24 110 28 165 33 370 34 166
1 226 -4 320 -29 22 -5 139 -35 180 -45 38 -10 121 -28 159 -36 13 -3 31 -9
40 -13 9 -5 32 -11 51 -15 73 -14 157 -65 227 -139 37 -40 79 -87 93 -105 103
-135 264 -305 400 -422 35 -30 74 -65 87 -78 13 -13 23 -19 23 -15 0 5 -28 37
-61 73 -72 76 -177 195 -234 264 -22 27 -55 65 -72 85 -18 20 -33 39 -33 43 0
4 -6 13 -12 20 -7 7 -33 40 -58 72 -123 163 -231 237 -380 262 -19 3 -38 8
-43 11 -4 2 -31 8 -60 14 -89 16 -109 20 -197 41 -168 39 -233 46 -405 45 -93
-1 -188 -4 -210 -8z"/>
<path d="M4940 6656 c0 -8 16 -31 35 -52 45 -49 95 -119 95 -133 0 -6 5 -11
10 -11 6 0 10 -6 10 -12 0 -7 12 -26 28 -41 28 -29 128 -97 142 -97 5 0 20
-14 35 -31 25 -30 27 -31 40 -13 22 29 18 53 -9 60 -13 3 -33 22 -46 45 l-22
40 -23 -21 c-21 -20 -25 -20 -52 -7 -52 28 -58 38 -103 185 -16 52 -71 102
-112 102 -17 0 -28 -5 -28 -14z"/>
<path d="M3839 6649 c-62 -14 -152 -58 -187 -92 -46 -44 -65 -83 -68 -142 -1
-27 -6 -98 -10 -157 -5 -79 -4 -108 5 -108 6 0 11 7 11 15 0 34 18 10 55 -72
22 -49 55 -105 73 -125 l34 -38 -25 0 c-32 0 -43 -16 -26 -36 17 -20 53 -34
104 -40 32 -4 45 -1 64 17 23 22 23 23 5 36 -11 8 -31 17 -45 20 -49 10 -77
45 -99 124 -11 41 -36 106 -55 145 -20 40 -35 87 -35 105 0 19 1 65 2 103 l1
69 53 52 c74 74 138 98 271 99 57 1 103 4 103 9 0 4 -8 7 -17 8 -10 0 -27 3
-38 5 -39 10 -141 11 -176 3z"/>
<path d="M4088 6623 c7 -3 16 -2 19 1 4 3 -2 6 -13 5 -11 0 -14 -3 -6 -6z"/>
<path d="M3830 6497 c-8 -7 -34 -34 -58 -61 -47 -55 -53 -89 -20 -116 19 -15
22 -27 21 -81 -2 -70 5 -86 53 -138 54 -59 73 -87 94 -136 24 -56 37 -54 20 2
-13 43 -47 128 -63 158 -6 12 -12 89 -13 185 -2 226 0 214 -34 187z"/>
<path d="M4947 6384 c-1 -1 -27 -4 -57 -7 -69 -7 -110 -22 -110 -41 0 -26 45
-43 67 -25 8 8 25 3 58 -16 33 -20 62 -28 103 -30 32 -1 72 -10 89 -19 44 -22
83 -22 76 2 -4 18 -73 72 -91 72 -10 0 -25 32 -27 55 0 8 -100 16 -108 9z m10
-32 c20 19 23 19 29 4 10 -25 -3 -46 -29 -46 -29 0 -80 37 -71 52 4 6 15 2 27
-11 l21 -21 23 22z"/>
<path d="M3182 6335 c-12 -14 -35 -49 -52 -78 -47 -85 -46 -182 6 -351 27 -86
29 -92 94 -236 57 -125 76 -188 96 -320 23 -146 68 -215 303 -454 104 -105
205 -209 226 -231 70 -75 137 -189 168 -285 17 -51 41 -70 27 -21 -5 17 -7 31
-5 31 8 0 -43 137 -73 196 -42 82 -96 148 -219 268 -357 344 -368 358 -423
571 -12 44 -22 85 -24 90 -2 6 -6 24 -10 40 -4 17 -14 47 -22 67 -7 20 -16 47
-19 60 -2 13 -23 82 -45 153 -22 72 -42 139 -45 150 -2 11 -8 35 -14 53 -19
63 -7 171 28 246 17 38 30 70 28 72 -2 2 -13 -7 -25 -21z"/>
<path d="M5606 5894 c-8 -20 -1 -28 82 -116 35 -37 61 -71 58 -76 -3 -5 -7
-22 -10 -38 l-5 -29 30 35 c52 60 109 164 109 198 0 47 -38 54 -106 17 l-51
-28 -35 27 c-40 30 -63 33 -72 10z"/>
<path d="M5122 5654 c-25 -17 -36 -86 -13 -81 9 2 15 9 14 15 -4 16 23 15 77
-4 42 -15 148 -15 265 0 31 4 150 17 198 21 55 5 25 -27 -43 -45 -50 -13 -104
-18 -233 -22 -95 -2 -102 -5 -181 -72 -45 -38 -74 -46 -39 -11 17 18 16 18
-32 12 -105 -14 -130 -18 -142 -22 -7 -2 -15 0 -18 5 -9 14 -34 12 -49 -3 -49
-49 96 -158 244 -185 41 -7 55 -7 105 -3 8 0 17 12 21 26 3 14 9 26 13 26 3 1
30 3 59 5 59 3 119 20 142 39 8 7 41 21 73 30 34 10 70 29 88 46 16 16 27 29
23 29 -3 0 -1 7 6 15 19 23 -3 18 -44 -10 -74 -50 -147 -80 -131 -55 4 6 1 18
-7 27 -11 14 -11 16 3 11 9 -4 25 -1 35 6 11 7 32 16 47 20 15 4 25 11 22 16
-4 7 -13 7 -24 0 -10 -5 -37 -12 -60 -15 -22 -2 -50 -10 -60 -17 -15 -9 -23
-9 -35 1 -32 27 -29 29 109 47 22 2 49 6 60 8 77 11 121 90 75 136 -16 16 -31
19 -100 17 -66 -2 -83 -5 -91 -20 -8 -14 -18 -16 -45 -11 -26 5 -40 2 -54 -11
-15 -14 -22 -14 -41 -5 -12 7 -50 12 -83 12 -39 0 -76 7 -98 18 -32 15 -40 16
-56 4z m264 -160 c-3 -9 -6 -18 -6 -20 0 -2 -11 -4 -25 -4 -14 0 -33 -9 -42
-20 -27 -31 -36 -23 -11 10 12 17 30 30 39 30 10 0 21 5 24 10 10 16 28 11 21
-6z m-243 -139 c-3 -9 -8 -14 -10 -11 -3 3 -2 9 2 15 9 16 15 13 8 -4z"/>
<path d="M4884 5604 c-19 -8 -5 -40 37 -84 l39 -41 63 12 c34 6 71 13 82 14
20 2 42 9 80 25 19 8 18 9 -4 9 -15 1 -21 6 -18 15 6 16 -11 14 -110 -13 -40
-10 -70 -15 -67 -10 3 5 9 9 14 9 26 0 59 21 54 34 -8 20 -140 43 -170 30z"/>
<path d="M4637 5332 c-60 -43 -74 -58 -63 -64 10 -5 38 1 77 17 34 14 69 25
76 25 8 0 37 -19 65 -42 48 -41 54 -43 113 -43 58 0 95 14 95 35 0 7 -63 42
-85 46 -24 5 -92 38 -124 60 -20 13 -45 24 -56 23 -11 0 -55 -26 -98 -57z"/>
<path d="M5597 5333 c-4 -3 -7 -14 -7 -23 0 -57 -117 -149 -217 -171 -29 -7
-50 -16 -47 -20 2 -5 10 -6 17 -3 7 2 37 6 67 8 148 11 208 59 215 174 3 40
-9 54 -28 35z"/>
<path d="M4539 5043 c-25 -63 -27 -91 -8 -122 29 -48 46 -40 90 42 24 46 20
60 -23 87 -43 26 -46 25 -59 -7z"/>
<path d="M4642 4854 c-51 -53 -12 -79 45 -30 23 20 26 28 17 42 -16 27 -26 25
-62 -12z"/>
<path d="M4607 4742 c-9 -10 -21 -41 -27 -69 -10 -46 -16 -55 -54 -77 -59 -34
-70 -50 -56 -75 22 -43 126 -44 179 -2 14 12 35 25 46 30 11 5 29 19 40 31 20
22 20 22 0 36 -13 10 -19 27 -20 54 -1 46 -7 53 -56 74 -34 14 -38 14 -52 -2z"/>
<path d="M4369 4598 c-1 -13 -1 -44 0 -70 0 -27 -3 -48 -7 -49 -7 -1 -20 -3
-79 -14 -33 -6 -38 -15 -33 -59 2 -19 1 -19 -25 -2 -26 17 -27 17 -41 -1 -7
-10 -14 -25 -14 -33 -3 -33 -11 -64 -19 -70 -28 -19 -32 -122 -5 -150 13 -13
19 -10 53 26 21 23 48 62 60 87 12 25 28 44 34 42 16 -6 38 8 41 26 11 55 20
69 52 79 33 11 38 19 35 50 -4 45 -19 127 -26 143 -10 24 -25 21 -26 -5z"/>
<path d="M6817 4474 c-1 -1 -38 -4 -82 -7 -142 -10 -307 -77 -393 -160 -103
-99 -106 -254 -7 -352 43 -42 102 -82 163 -109 58 -25 217 -82 235 -84 26 -2
172 -57 227 -85 113 -58 159 -152 116 -236 -23 -44 -89 -97 -152 -121 -88 -35
-298 -36 -453 -5 -14 3 -37 8 -51 11 -39 8 -94 26 -106 35 -7 6 -17 2 -26 -9
-18 -20 -58 -97 -58 -111 0 -21 88 -51 225 -76 68 -12 435 -14 480 -2 90 24
115 32 163 53 75 33 146 87 184 140 18 25 33 50 35 57 25 108 23 168 -8 233
-49 104 -171 170 -494 270 -228 70 -314 139 -301 242 19 158 286 220 601 141
75 -19 80 -20 92 -3 20 28 46 102 40 117 -3 7 -31 19 -63 26 -33 8 -72 17 -89
21 -28 6 -86 10 -218 14 -32 1 -59 1 -60 0z"/>
<path d="M3390 4455 c-4 -5 -49 -94 -98 -196 -50 -102 -125 -257 -167 -345
-363 -746 -354 -728 -346 -736 8 -10 214 -13 229 -4 6 4 37 61 69 128 32 67
74 153 93 192 l35 71 325 0 325 0 77 -155 c43 -85 84 -172 93 -193 8 -21 24
-41 34 -45 11 -4 67 -6 125 -4 84 3 106 6 106 18 0 15 -48 116 -263 554 -164
336 -270 555 -313 647 -18 40 -39 73 -46 74 -92 6 -271 2 -278 -6z m150 -175
c0 -14 88 -215 158 -360 75 -156 94 -202 87 -209 -8 -7 -486 -10 -507 -2 -15
5 -10 22 43 131 72 148 184 396 194 428 6 22 25 31 25 12z"/>
<path d="M831 4449 c-58 -11 -64 -19 -68 -81 -8 -127 -8 -1190 -1 -1194 50
-31 706 -16 796 17 12 5 22 7 22 4 0 -7 121 44 164 69 90 53 172 165 179 246
7 76 -30 159 -98 222 -26 25 -170 101 -230 122 -16 6 -6 14 50 41 76 37 162
113 187 166 25 51 17 146 -16 203 -50 86 -134 130 -348 183 -38 9 -590 11
-637 2z m534 -129 c73 -11 155 -44 191 -76 26 -24 52 -82 48 -109 -12 -82 -22
-100 -85 -148 -73 -55 -132 -65 -414 -70 l-110 -2 1 115 c1 147 10 281 21 291
18 17 230 17 348 -1z m-130 -544 c132 -7 145 -8 215 -29 87 -26 157 -72 191
-124 35 -56 37 -100 8 -160 -42 -87 -142 -145 -275 -159 -76 -8 -329 -12 -356
-6 -14 3 -17 18 -18 86 -2 106 0 261 4 311 2 22 4 50 5 62 1 18 8 22 44 25 23
2 49 2 57 1 8 -1 65 -4 125 -7z"/>
<path d="M4849 4456 c-2 -2 -31 -7 -63 -10 -32 -4 -63 -9 -67 -12 -5 -3 -9
-288 -9 -635 l0 -629 58 -1 c91 -2 175 1 179 5 2 2 5 124 7 271 2 181 7 269
14 274 21 13 297 1 323 -15 3 -2 21 -6 40 -9 46 -8 109 -46 135 -82 34 -45 53
-87 99 -216 84 -238 74 -227 209 -227 56 0 106 4 113 8 8 5 4 24 -14 67 -14
33 -43 109 -64 168 -71 199 -120 278 -201 321 -20 11 -47 28 -60 37 -22 17
-22 18 -3 25 40 13 145 63 160 76 60 50 86 79 106 118 28 54 30 60 30 132 1
91 -64 195 -149 239 -15 8 -29 17 -32 20 -8 9 -170 59 -220 67 -45 8 -584 15
-591 8z m441 -132 c84 -9 93 -11 125 -19 48 -13 116 -57 147 -96 25 -32 31
-45 42 -99 7 -34 -25 -105 -66 -147 -23 -23 -48 -43 -55 -43 -7 0 -13 -4 -13
-9 0 -12 -83 -39 -140 -46 -38 -4 -242 -15 -345 -19 l-30 -1 0 237 c0 131 0
238 0 238 0 0 34 3 75 7 41 3 76 7 78 8 4 3 117 -3 182 -11z"/>
<path d="M2342 3368 c-18 -11 -41 -37 -51 -57 -17 -32 -17 -40 -5 -81 22 -72
84 -103 151 -75 44 19 63 39 78 83 16 46 3 85 -39 117 -45 34 -94 39 -134 13z"/>
<path d="M1005 2920 c-161 -8 -97 -13 295 -24 1105 -31 5039 -25 5585 8 22 1
65 4 95 6 l55 3 -50 6 c-27 3 -52 4 -55 1 -3 -3 -16 -4 -30 -2 -44 5 -5770 7
-5895 2z"/>
<path d="M1098 2682 c-16 -3 -30 -62 -43 -177 -2 -22 -6 -53 -9 -70 -2 -16 -7
-59 -11 -95 -4 -36 -9 -74 -11 -85 -3 -11 -7 -59 -11 -107 -7 -102 -2 -107 75
-92 46 9 47 10 53 54 4 25 10 81 13 125 4 44 9 91 11 105 2 14 7 65 10 115 4
49 10 95 13 102 4 7 27 -27 57 -85 99 -194 200 -367 228 -390 9 -7 35 -15 59
-18 l43 -5 99 163 c205 339 225 368 224 321 0 -27 12 -213 17 -263 3 -25 7
-67 10 -95 7 -74 13 -114 20 -126 7 -10 77 -5 110 7 15 6 16 16 11 63 -4 31
-9 76 -11 101 -3 25 -8 65 -11 90 -3 25 -7 68 -10 95 -2 28 -6 64 -8 80 -3 17
-8 57 -12 89 -3 33 -7 66 -8 75 -4 21 -32 30 -101 30 -59 1 -78 -5 -86 -24 -2
-5 -29 -48 -60 -95 -54 -84 -110 -179 -184 -313 -43 -79 -34 -83 -107 53 -49
91 -142 255 -188 328 l-28 46 -69 1 c-37 0 -76 -1 -85 -3z"/>
<path d="M2747 2669 c-3 -9 -4 -151 -3 -315 l1 -299 130 2 c359 4 421 6 435
13 9 5 16 20 18 34 l2 26 -229 0 -230 0 4 106 c2 58 5 108 7 109 2 2 90 6 195
8 106 3 196 8 202 11 5 3 7 15 4 25 -7 27 -22 28 -338 35 l-70 1 -1 88 c0 49
3 90 6 92 4 2 87 5 184 5 206 2 236 8 236 52 l0 30 -274 -3 c-249 -3 -275 -4
-279 -20z"/>
<path d="M4025 2684 c-6 -1 -21 -5 -35 -8 l-26 -5 3 -298 c2 -164 5 -303 7
-309 7 -18 374 -10 458 9 100 23 164 69 186 133 21 66 -9 111 -111 163 -59 30
-59 33 -5 60 49 25 81 67 81 108 0 31 -7 43 -41 73 -39 35 -77 51 -152 66 -33
6 -345 13 -365 8z m357 -89 c38 -19 59 -50 53 -81 -2 -11 -4 -23 -4 -27 -1 -4
-27 -20 -58 -34 -49 -23 -73 -27 -165 -29 l-107 -2 -3 37 c-5 60 7 142 23 152
23 16 219 4 261 -16z m-38 -255 c64 -14 100 -34 125 -68 19 -28 20 -29 1 -59
-31 -51 -72 -73 -164 -86 -94 -13 -212 -16 -208 -4 1 4 2 56 2 116 0 96 2 110
18 113 32 7 177 0 226 -12z"/>
<path d="M5289 2681 c-13 -5 -16 -47 -18 -312 l-3 -306 295 0 294 1 0 33 0 33
-227 0 -227 0 4 107 c2 59 5 108 6 109 2 2 86 5 187 8 102 2 191 5 198 5 6 1
12 12 12 25 0 33 2 32 -315 39 l-90 2 0 88 c0 49 2 90 6 92 3 3 89 5 190 6
101 0 194 5 207 10 32 12 29 45 -5 54 -34 9 -492 14 -514 6z"/>
<path d="M6499 2686 c-2 -3 -4 -96 -2 -208 1 -112 2 -252 3 -311 l0 -108 288
3 c284 3 287 3 290 24 2 13 -4 24 -15 29 -10 4 -110 9 -222 11 -113 2 -206 6
-208 8 -2 2 -5 122 -7 268 -1 146 -6 269 -9 275 -6 10 -109 18 -118 9z"/>
</g>
</svg>
