<?xml version="1.0" standalone="no"?>
<!DOCTYPE svg PUBLIC "-//W3C//DTD SVG 20010904//EN"
 "http://www.w3.org/TR/2001/REC-SVG-20010904/DTD/svg10.dtd">
<svg version="1.0" xmlns="http://www.w3.org/2000/svg"
 width="1716.000000pt" height="1716.000000pt" viewBox="0 0 1716.000000 1716.000000"
 preserveAspectRatio="xMidYMid meet">
<metadata>
Created by potrace 1.14, written by Peter Selinger 2001-2017
</metadata>
<g transform="translate(0.000000,1716.000000) scale(0.100000,-0.100000)"
fill="#000000" stroke="none">
<path d="M2090 17071 c0 -75 3 -90 18 -96 9 -3 235 -10 502 -15 524 -10 625
-19 773 -73 187 -68 301 -192 353 -382 23 -87 28 -291 15 -642 -53 -1389 -166
-2910 -317 -4248 -282 -2507 -687 -4274 -1172 -5112 l-36 -63 -345 -2 -345 -3
-237 -980 c-130 -539 -236 -981 -235 -981 0 -1 37 -5 82 -8 l81 -7 22 113
c101 517 271 898 506 1134 159 160 307 241 550 301 65 16 276 18 3130 21 2054
2 3090 0 3150 -7 264 -30 459 -125 646 -311 246 -245 424 -650 524 -1191 l16
-86 -356 -1809 c-195 -995 -365 -1840 -376 -1879 -60 -201 -196 -353 -389
-435 -165 -71 -368 -104 -735 -120 -132 -6 -268 -14 -302 -16 l-63 -6 0 -79 0
-79 1645 0 1645 0 0 80 0 79 -32 5 c-18 3 -118 10 -223 16 -657 37 -969 111
-1113 264 -58 61 -92 143 -92 219 0 29 152 846 338 1817 l339 1765 1334 2
1334 3 279 -1133 c153 -622 348 -1413 433 -1757 136 -552 155 -635 155 -710 2
-264 -194 -403 -639 -455 -106 -13 -481 -29 -795 -35 -16 0 -18 -11 -18 -80
l0 -80 1980 0 1980 0 0 90 0 90 -37 0 c-149 0 -611 23 -713 35 -161 18 -303
55 -398 102 -130 64 -242 187 -293 322 -11 31 -567 2254 -1234 4941 -715 2876
-1269 5087 -1348 5375 l-134 490 -1352 3 -1351 2 0 -79 0 -79 143 -6 c390 -19
633 -43 847 -86 522 -104 744 -307 727 -665 -3 -79 -121 -696 -552 -2890 -302
-1534 -551 -2793 -555 -2798 -3 -4 -91 347 -195 780 -103 434 -190 794 -193
800 -3 10 -121 13 -526 15 l-521 3 0 4975 c0 4775 1 4978 18 5053 56 236 202
377 457 441 152 38 273 46 714 46 227 0 428 3 445 6 l31 7 0 88 0 89 -3995 0
-3995 0 0 -89z m5258 -287 l142 -6 0 -5164 0 -5164 -958 0 c-527 0 -1593 -3
-2369 -7 l-1410 -6 91 274 c429 1287 779 3232 1030 5724 132 1307 244 2964
271 4000 3 121 8 253 11 294 l6 73 1521 -6 c837 -4 1586 -9 1665 -12z m3906
-6561 c3 -10 313 -1269 690 -2798 376 -1529 687 -2792 691 -2807 l7 -28 -1256
0 c-1160 0 -1256 1 -1256 16 0 13 1030 5330 1081 5582 10 52 32 70 43 35z"/>
</g>
</svg>
