<?xml version="1.0" encoding="utf-8"?>
<!-- Generator: Adobe Illustrator 28.0.0, SVG Export Plug-In . SVG Version: 6.00 Build 0)  -->
<svg version="1.1" id="_Слой_1" xmlns="http://www.w3.org/2000/svg" xmlns:xlink="http://www.w3.org/1999/xlink" x="0px"
	 y="0px" viewBox="0 0 228.3 252.3" style="enable-background:new 0 0 228.3 252.3;" xml:space="preserve">
<style type="text/css">
	.st0{opacity:0.85;}
</style>
<g class="st0">
	<path d="M44.1,129.3c-9.7,0-13.7,8.2-15.4,18.2l-1.9-0.2l5.5-22.8h8C53.8,102.7,57.8,28.9,58.2,9.9c-0.4-9.7-9.9-7-19.4-7.8V0h92.8
		v2.1c-9.9,0.4-19.4-1.9-19.4,8.4v113.9h12.2l5.5,23l-1.9,0.4c-1.7-10.1-5.7-18.4-15.4-18.4L44.1,129.3L44.1,129.3z M101.5,124.4
		V4.4c-0.9-0.2-37.8-0.2-38.8-0.2C62,35.4,57.2,95.4,46.4,124.5L101.5,124.4L101.5,124.4z"/>
	<path d="M153.2,66.2l3.4,12.6l27.8,111.8c1.7,7,8.4,6.3,17.1,6.6v2.1h-46v-1.9c8.8-0.2,18.6,0.4,16.7-7.4l-9.9-40.1h-31l-7.8,40.7
		c-1.1,6.3,8.6,6.3,16.9,6.9v1.9h-38.2v-1.9c8.6-0.4,15.8,0,17.5-7.4l21.9-111.2c1.5-7.8-4.2-10.3-19.8-10.7v-1.9L153.2,66.2
		L153.2,66.2z M132.1,146h29.3l-16.2-65.6h-0.4L132.1,146L132.1,146z"/>
</g>
<g class="st0">
	<g>
		<path d="M8.8,226.3c1.7,0,3.3,0.5,4.6,1.5s2.3,2.5,3,4.4c0.7,1.9,1.1,4.2,1.1,6.9s-0.4,4.9-1.1,6.9s-1.8,3.5-3.1,4.6
			c-1.3,1.1-2.8,1.7-4.5,1.7s-3.3-0.5-4.6-1.5c-1.3-1-2.3-2.5-3-4.4c-0.7-1.9-1.1-4.2-1.1-6.9s0.4-4.9,1.1-6.9s1.8-3.5,3.1-4.6
			C5.6,226.9,7.1,226.3,8.8,226.3L8.8,226.3z M8.6,226.9c-1.7,0-3,1.1-3.8,3.2s-1.2,5.2-1.2,9.2s0.5,7.2,1.4,9.2s2.2,3.1,3.9,3.1
			c1.7,0,3-1.1,3.8-3.2c0.8-2.1,1.2-5.2,1.2-9.2s-0.5-7.2-1.4-9.2C11.6,228,10.3,226.9,8.6,226.9z"/>
		<path d="M35,226.4V248c0,0.9,0.1,1.5,0.2,1.9c0.1,0.4,0.4,0.7,0.8,0.9c0.4,0.1,1,0.2,1.8,0.3v0.7c-0.5-0.1-1.1-0.1-1.9-0.1
			s-1.7,0-2.6,0s-1.9,0-2.8,0c-0.9,0-1.7,0-2.3,0.1v-0.7c1-0.1,1.7-0.1,2.3-0.3s0.9-0.4,1-0.9c0.2-0.4,0.3-1.1,0.3-1.9v-15.9
			c0-1.2-0.3-2-0.9-2.3c-0.6-0.3-1.6-0.5-3.2-0.5v-0.7c1.9-0.3,3.4-0.6,4.5-1C33.3,227.2,34.3,226.8,35,226.4L35,226.4z"/>
		<path d="M50.6,247.8c0.6,0,1.1,0.2,1.6,0.7s0.7,1,0.7,1.6s-0.2,1.1-0.7,1.6c-0.5,0.4-1,0.7-1.6,0.7s-1.1-0.2-1.6-0.7
			s-0.7-1-0.7-1.6s0.2-1.1,0.7-1.6S50,247.8,50.6,247.8z"/>
		<path d="M72.8,226.3c1.7,0,3.3,0.5,4.6,1.5c1.3,1,2.3,2.5,3.1,4.4c0.7,1.9,1.1,4.2,1.1,6.9s-0.4,4.9-1.1,6.9s-1.8,3.5-3.1,4.6
			s-2.8,1.7-4.5,1.7s-3.3-0.5-4.6-1.5c-1.3-1-2.3-2.5-3.1-4.4c-0.7-1.9-1.1-4.2-1.1-6.9s0.4-4.9,1.1-6.9s1.8-3.5,3.1-4.6
			C69.6,226.9,71.1,226.3,72.8,226.3L72.8,226.3z M72.7,226.9c-1.7,0-3,1.1-3.8,3.2c-0.8,2.1-1.2,5.2-1.2,9.2s0.5,7.2,1.4,9.2
			s2.2,3.1,3.9,3.1c1.7,0,3-1.1,3.8-3.2c0.8-2.1,1.2-5.2,1.2-9.2s-0.5-7.2-1.4-9.2C75.6,228,74.3,226.9,72.7,226.9z"/>
		<path d="M100.2,226.3c2.6,0,4.6,1,6,3s2.1,4.9,2.1,8.7c0,2.9-0.4,5.4-1.2,7.6c-0.8,2.1-1.9,3.8-3.3,4.9c-1.4,1.1-3.1,1.7-4.9,1.7
			c-0.6,0-1.2-0.1-1.8-0.2s-1.1-0.3-1.5-0.6c-0.5-0.3-0.9-0.6-1.4-1.1s-0.7-1-0.7-1.6c0-0.5,0.2-1,0.6-1.4c0.4-0.4,0.8-0.6,1.4-0.6
			s1,0.2,1.3,0.5c0.4,0.3,0.6,0.8,0.6,1.3c0,0.4-0.1,0.8-0.4,1.2c-0.3,0.4-0.6,0.6-1.1,0.8c0.3,0.3,0.7,0.5,1.4,0.7s1.2,0.2,1.6,0.2
			c0.8,0,1.5-0.2,2.2-0.6s1.4-1.1,1.9-2.1s1-2.3,1.3-4c0.3-1.7,0.5-3.9,0.5-6.5c0-2.4-0.1-4.3-0.4-5.8c-0.3-1.5-0.6-2.7-1.1-3.5
			c-0.5-0.8-1-1.4-1.5-1.8s-1.2-0.5-1.8-0.5c-1.2,0-2.2,0.6-3.1,1.7c-0.9,1.1-1.3,3.1-1.3,5.9c0,2.6,0.4,4.4,1.1,5.5
			c0.7,1.1,1.7,1.7,2.8,1.7c0.6,0,1.2-0.2,1.9-0.5c0.7-0.4,1.4-1,2-2.1c0.6-1,1.1-2.5,1.3-4.4l0.4,0.1c-0.2,1.9-0.6,3.4-1.2,4.5
			c-0.6,1.1-1.3,1.9-2.2,2.4s-1.8,0.7-2.9,0.7c-1.2,0-2.3-0.3-3.3-0.9c-1-0.6-1.9-1.4-2.5-2.6c-0.6-1.2-0.9-2.6-0.9-4.4
			c0-1.9,0.4-3.4,1.1-4.7s1.7-2.2,2.9-2.8S98.7,226.3,100.2,226.3L100.2,226.3z"/>
		<path d="M121.1,247.8c0.6,0,1.1,0.2,1.6,0.7s0.7,1,0.7,1.6s-0.2,1.1-0.7,1.6s-1,0.7-1.6,0.7s-1.1-0.2-1.6-0.7s-0.7-1-0.7-1.6
			s0.2-1.1,0.7-1.6S120.5,247.8,121.1,247.8z"/>
		<path d="M141.1,226.3c1.2,0,2.4,0.2,3.4,0.6s1.8,1.1,2.4,1.9c0.6,0.8,0.9,1.9,0.9,3.1s-0.3,2.5-0.9,3.7c-0.6,1.2-1.5,2.5-2.5,3.9
			s-2.2,2.8-3.5,4.3s-2.6,3.3-3.9,5.1h7.9c0.8,0,1.3-0.2,1.8-0.7s0.7-1.3,0.9-2.6h0.8c0,0.3-0.1,0.6-0.1,0.9c0,0.4,0,0.7,0,1.1
			c0,0.5,0,1.1,0.1,1.8c0,0.7,0.1,1.4,0.2,2.2h-7.6c-1.6,0-2.8,0-3.8,0c-1,0-1.9,0-2.8,0v-0.7c0.9-1,1.9-2.2,3.1-3.6
			c1.1-1.4,2.3-2.9,3.4-4.6c1.1-1.6,2-3.4,2.7-5.1c0.7-1.8,1.1-3.5,1.1-5.3c0-1.2-0.2-2.2-0.6-3.1c-0.4-0.8-0.9-1.4-1.5-1.8
			c-0.6-0.4-1.4-0.6-2.2-0.6s-1.6,0.2-2.4,0.6c-0.8,0.4-1.3,1-1.6,1.8c0.5,0.1,1,0.3,1.4,0.6c0.4,0.3,0.6,0.7,0.6,1.3
			s-0.2,1-0.6,1.3c-0.4,0.3-0.8,0.5-1.4,0.5c-0.6,0-1.1-0.2-1.4-0.6s-0.5-0.9-0.5-1.3c0-0.4,0.1-0.8,0.3-1.3s0.5-0.9,0.9-1.4
			c0.8-0.8,1.6-1.4,2.6-1.8S140.1,226.3,141.1,226.3L141.1,226.3z"/>
		<path d="M168,226.3c1.7,0,3.3,0.5,4.6,1.5c1.3,1,2.3,2.5,3.1,4.4c0.7,1.9,1.1,4.2,1.1,6.9s-0.4,4.9-1.1,6.9s-1.8,3.5-3.1,4.6
			c-1.3,1.1-2.8,1.7-4.5,1.7s-3.3-0.5-4.6-1.5c-1.3-1-2.3-2.5-3.1-4.4c-0.7-1.9-1.1-4.2-1.1-6.9s0.4-4.9,1.1-6.9s1.8-3.5,3.1-4.6
			C164.8,226.9,166.3,226.3,168,226.3L168,226.3z M167.8,226.9c-1.7,0-3,1.1-3.8,3.2s-1.2,5.2-1.2,9.2s0.5,7.2,1.4,9.2
			s2.2,3.1,3.9,3.1c1.7,0,3-1.1,3.9-3.2c0.8-2.1,1.2-5.2,1.2-9.2s-0.5-7.2-1.4-9.2C170.8,228,169.5,226.9,167.8,226.9z"/>
		<path d="M194.2,226.3c1.2,0,2.4,0.2,3.4,0.6s1.8,1.1,2.4,1.9c0.6,0.8,0.9,1.9,0.9,3.1s-0.3,2.5-0.9,3.7c-0.6,1.2-1.5,2.5-2.5,3.9
			s-2.2,2.8-3.5,4.3s-2.6,3.3-3.9,5.1h7.9c0.8,0,1.3-0.2,1.8-0.7s0.7-1.3,0.9-2.6h0.8c0,0.3-0.1,0.6-0.1,0.9c0,0.4,0,0.7,0,1.1
			c0,0.5,0,1.1,0.1,1.8c0,0.7,0.1,1.4,0.2,2.2h-7.6c-1.6,0-2.8,0-3.8,0c-1,0-1.9,0-2.8,0v-0.7c0.9-1,1.9-2.2,3.1-3.6
			c1.1-1.4,2.3-2.9,3.4-4.6c1.1-1.6,2-3.4,2.7-5.1c0.7-1.8,1.1-3.5,1.1-5.3c0-1.2-0.2-2.2-0.6-3.1c-0.4-0.8-0.9-1.4-1.5-1.8
			c-0.6-0.4-1.4-0.6-2.2-0.6s-1.6,0.2-2.4,0.6c-0.8,0.4-1.3,1-1.6,1.8c0.5,0.1,1,0.3,1.4,0.6c0.4,0.3,0.6,0.7,0.6,1.3
			s-0.2,1-0.6,1.3c-0.4,0.3-0.8,0.5-1.4,0.5c-0.6,0-1.1-0.2-1.4-0.6c-0.3-0.4-0.5-0.9-0.5-1.3c0-0.4,0.1-0.8,0.3-1.3
			s0.5-0.9,0.9-1.4c0.8-0.8,1.6-1.4,2.6-1.8S193.2,226.3,194.2,226.3L194.2,226.3z"/>
		<path d="M223.3,226.3l-0.1,1.1l-11.5,17.1l1-1.7h15.6v2.4h-17.3v-0.7L223.3,226.3L223.3,226.3z M223.8,226.3V248
			c0,0.9,0.1,1.5,0.2,1.9c0.1,0.4,0.4,0.7,0.8,0.9s1,0.2,1.8,0.3v0.7c-0.5-0.1-1.1-0.1-1.9-0.1s-1.7,0-2.6,0s-1.9,0-2.8,0
			c-0.9,0-1.7,0-2.3,0.1v-0.7c1-0.1,1.7-0.1,2.3-0.3c0.5-0.1,0.9-0.4,1-0.9c0.2-0.4,0.3-1.1,0.3-1.9v-17.1l2.6-4.6L223.8,226.3
			L223.8,226.3z"/>
	</g>
</g>
</svg>
