<?xml version="1.0" encoding="utf-8"?><svg viewBox="0 0 228.3 252.3" xmlns="http://www.w3.org/2000/svg" xmlns:xlink="http://www.w3.org/1999/xlink"><style>:root>svg{display:none}:root>svg:target{display:block}</style><svg version="1.1" id="logo" x="0" y="0" viewBox="0 0 228.3 252.3" style="enable-background:new 0 0 228.3 252.3" xml:space="preserve" xmlns="http://www.w3.org/2000/svg"><style>.ast0{opacity:.85}</style><g class="ast0"><path d="M44.1 129.3c-9.7 0-13.7 8.2-15.4 18.2l-1.9-.2 5.5-22.8h8C53.8 102.7 57.8 28.9 58.2 9.9c-.4-9.7-9.9-7-19.4-7.8V0h92.8v2.1c-9.9.4-19.4-1.9-19.4 8.4v113.9h12.2l5.5 23-1.9.4c-1.7-10.1-5.7-18.4-15.4-18.4l-68.5-.1zm57.4-4.9V4.4c-.9-.2-37.8-.2-38.8-.2-.7 31.2-5.5 91.2-16.3 120.3l55.1-.1z"/><path d="m153.2 66.2 3.4 12.6 27.8 111.8c1.7 7 8.4 6.3 17.1 6.6v2.1h-46v-1.9c8.8-.2 18.6.4 16.7-7.4l-9.9-40.1h-31l-7.8 40.7c-1.1 6.3 8.6 6.3 16.9 6.9v1.9h-38.2v-1.9c8.6-.4 15.8 0 17.5-7.4l21.9-111.2c1.5-7.8-4.2-10.3-19.8-10.7v-1.9l31.4-.1zM132.1 146h29.3l-16.2-65.6h-.4L132.1 146z"/></g><g class="ast0"><path d="M8.8 226.3c1.7 0 3.3.5 4.6 1.5s2.3 2.5 3 4.4c.7 1.9 1.1 4.2 1.1 6.9s-.4 4.9-1.1 6.9-1.8 3.5-3.1 4.6c-1.3 1.1-2.8 1.7-4.5 1.7s-3.3-.5-4.6-1.5c-1.3-1-2.3-2.5-3-4.4-.7-1.9-1.1-4.2-1.1-6.9s.4-4.9 1.1-6.9 1.8-3.5 3.1-4.6c1.3-1.1 2.8-1.7 4.5-1.7zm-.2.6c-1.7 0-3 1.1-3.8 3.2s-1.2 5.2-1.2 9.2.5 7.2 1.4 9.2 2.2 3.1 3.9 3.1c1.7 0 3-1.1 3.8-3.2.8-2.1 1.2-5.2 1.2-9.2s-.5-7.2-1.4-9.2c-.9-2-2.2-3.1-3.9-3.1zM35 226.4V248c0 .9.1 1.5.2 1.9.1.4.4.7.8.9.4.1 1 .2 1.8.3v.7c-.5-.1-1.1-.1-1.9-.1h-5.4c-.9 0-1.7 0-2.3.1v-.7c1-.1 1.7-.1 2.3-.3s.9-.4 1-.9c.2-.4.3-1.1.3-1.9v-15.9c0-1.2-.3-2-.9-2.3-.6-.3-1.6-.5-3.2-.5v-.7c1.9-.3 3.4-.6 4.5-1s2.1-.8 2.8-1.2zM50.6 247.8c.6 0 1.1.2 1.6.7s.7 1 .7 1.6-.2 1.1-.7 1.6c-.5.4-1 .7-1.6.7s-1.1-.2-1.6-.7-.7-1-.7-1.6.2-1.1.7-1.6 1-.7 1.6-.7zM72.8 226.3c1.7 0 3.3.5 4.6 1.5 1.3 1 2.3 2.5 3.1 4.4.7 1.9 1.1 4.2 1.1 6.9s-.4 4.9-1.1 6.9-1.8 3.5-3.1 4.6-2.8 1.7-4.5 1.7-3.3-.5-4.6-1.5c-1.3-1-2.3-2.5-3.1-4.4-.7-1.9-1.1-4.2-1.1-6.9s.4-4.9 1.1-6.9 1.8-3.5 3.1-4.6c1.3-1.1 2.8-1.7 4.5-1.7zm-.1.6c-1.7 0-3 1.1-3.8 3.2-.8 2.1-1.2 5.2-1.2 9.2s.5 7.2 1.4 9.2 2.2 3.1 3.9 3.1c1.7 0 3-1.1 3.8-3.2.8-2.1 1.2-5.2 1.2-9.2s-.5-7.2-1.4-9.2c-1-2-2.3-3.1-3.9-3.1zM100.2 226.3c2.6 0 4.6 1 6 3s2.1 4.9 2.1 8.7c0 2.9-.4 5.4-1.2 7.6-.8 2.1-1.9 3.8-3.3 4.9-1.4 1.1-3.1 1.7-4.9 1.7-.6 0-1.2-.1-1.8-.2s-1.1-.3-1.5-.6c-.5-.3-.9-.6-1.4-1.1s-.7-1-.7-1.6c0-.5.2-1 .6-1.4.4-.4.8-.6 1.4-.6s1 .2 1.3.5c.4.3.6.8.6 1.3 0 .4-.1.8-.4 1.2-.3.4-.6.6-1.1.8.3.3.7.5 1.4.7s1.2.2 1.6.2c.8 0 1.5-.2 2.2-.6s1.4-1.1 1.9-2.1 1-2.3 1.3-4c.3-1.7.5-3.9.5-6.5 0-2.4-.1-4.3-.4-5.8-.3-1.5-.6-2.7-1.1-3.5-.5-.8-1-1.4-1.5-1.8s-1.2-.5-1.8-.5c-1.2 0-2.2.6-3.1 1.7-.9 1.1-1.3 3.1-1.3 5.9 0 2.6.4 4.4 1.1 5.5.7 1.1 1.7 1.7 2.8 1.7.6 0 1.2-.2 1.9-.5.7-.4 1.4-1 2-2.1.6-1 1.1-2.5 1.3-4.4l.4.1c-.2 1.9-.6 3.4-1.2 4.5s-1.3 1.9-2.2 2.4-1.8.7-2.9.7c-1.2 0-2.3-.3-3.3-.9-1-.6-1.9-1.4-2.5-2.6-.6-1.2-.9-2.6-.9-4.4 0-1.9.4-3.4 1.1-4.7s1.7-2.2 2.9-2.8 2.6-.4 4.1-.4zM121.1 247.8c.6 0 1.1.2 1.6.7s.7 1 .7 1.6-.2 1.1-.7 1.6-1 .7-1.6.7-1.1-.2-1.6-.7-.7-1-.7-1.6.2-1.1.7-1.6 1-.7 1.6-.7zM141.1 226.3c1.2 0 2.4.2 3.4.6s1.8 1.1 2.4 1.9c.6.8.9 1.9.9 3.1s-.3 2.5-.9 3.7c-.6 1.2-1.5 2.5-2.5 3.9s-2.2 2.8-3.5 4.3-2.6 3.3-3.9 5.1h7.9c.8 0 1.3-.2 1.8-.7s.7-1.3.9-2.6h.8c0 .3-.1.6-.1.9v1.1c0 .5 0 1.1.1 1.8 0 .7.1 1.4.2 2.2h-14.2v-.7c.9-1 1.9-2.2 3.1-3.6 1.1-1.4 2.3-2.9 3.4-4.6 1.1-1.6 2-3.4 2.7-5.1.7-1.8 1.1-3.5 1.1-5.3 0-1.2-.2-2.2-.6-3.1-.4-.8-.9-1.4-1.5-1.8-.6-.4-1.4-.6-2.2-.6s-1.6.2-2.4.6c-.8.4-1.3 1-1.6 1.8.5.1 1 .3 1.4.6.4.3.6.7.6 1.3s-.2 1-.6 1.3c-.4.3-.8.5-1.4.5-.6 0-1.1-.2-1.4-.6s-.5-.9-.5-1.3.1-.8.3-1.3.5-.9.9-1.4c.8-.8 1.6-1.4 2.6-1.8s1.8-.2 2.8-.2zM168 226.3c1.7 0 3.3.5 4.6 1.5 1.3 1 2.3 2.5 3.1 4.4.7 1.9 1.1 4.2 1.1 6.9s-.4 4.9-1.1 6.9-1.8 3.5-3.1 4.6c-1.3 1.1-2.8 1.7-4.5 1.7s-3.3-.5-4.6-1.5c-1.3-1-2.3-2.5-3.1-4.4-.7-1.9-1.1-4.2-1.1-6.9s.4-4.9 1.1-6.9 1.8-3.5 3.1-4.6c1.3-1.1 2.8-1.7 4.5-1.7zm-.2.6c-1.7 0-3 1.1-3.8 3.2s-1.2 5.2-1.2 9.2.5 7.2 1.4 9.2 2.2 3.1 3.9 3.1c1.7 0 3-1.1 3.9-3.2.8-2.1 1.2-5.2 1.2-9.2s-.5-7.2-1.4-9.2c-1-2-2.3-3.1-4-3.1zM194.2 226.3c1.2 0 2.4.2 3.4.6s1.8 1.1 2.4 1.9c.6.8.9 1.9.9 3.1s-.3 2.5-.9 3.7c-.6 1.2-1.5 2.5-2.5 3.9s-2.2 2.8-3.5 4.3-2.6 3.3-3.9 5.1h7.9c.8 0 1.3-.2 1.8-.7s.7-1.3.9-2.6h.8c0 .3-.1.6-.1.9v1.1c0 .5 0 1.1.1 1.8 0 .7.1 1.4.2 2.2h-14.2v-.7c.9-1 1.9-2.2 3.1-3.6 1.1-1.4 2.3-2.9 3.4-4.6 1.1-1.6 2-3.4 2.7-5.1.7-1.8 1.1-3.5 1.1-5.3 0-1.2-.2-2.2-.6-3.1-.4-.8-.9-1.4-1.5-1.8-.6-.4-1.4-.6-2.2-.6s-1.6.2-2.4.6c-.8.4-1.3 1-1.6 1.8.5.1 1 .3 1.4.6.4.3.6.7.6 1.3s-.2 1-.6 1.3c-.4.3-.8.5-1.4.5-.6 0-1.1-.2-1.4-.6-.3-.4-.5-.9-.5-1.3s.1-.8.3-1.3.5-.9.9-1.4c.8-.8 1.6-1.4 2.6-1.8s1.8-.2 2.8-.2zM223.3 226.3l-.1 1.1-11.5 17.1 1-1.7h15.6v2.4H211v-.7l12.3-18.2zm.5 0V248c0 .9.1 1.5.2 1.9.1.4.4.7.8.9s1 .2 1.8.3v.7c-.5-.1-1.1-.1-1.9-.1h-5.4c-.9 0-1.7 0-2.3.1v-.7c1-.1 1.7-.1 2.3-.3.5-.1.9-.4 1-.9.2-.4.3-1.1.3-1.9v-17.1l2.6-4.6h.6z"/></g></svg></svg>